HIERARCHY
ROOT Hips
{
   OFFSET 0.00000 0.00000 0.00000
   CHANNELS 6 Xposition Yposition Zposition Zrotation Xrotation Yrotation
   JOINT RightUpLeg
   {
      OFFSET -10.734961 -10.400485 0.121982
      CHANNELS 3 Zrotation Xrotation Yrotation
      JOINT RightLeg
      {
         OFFSET 0.000000 -53.307237 1.647240
         CHANNELS 3 Zrotation Xrotation Yrotation
         JOINT RightFoot
         {
            OFFSET 0.304259 -50.510883 -1.752708
            CHANNELS 3 Zrotation Xrotation Yrotation
            JOINT RightToes
            {
               OFFSET 0.048000 -5.298108 10.198920
               CHANNELS 3 Zrotation Xrotation Yrotation
               End Site
               {
                  OFFSET -0.096000 -0.164938 11.735748
               }
            }
         }
      }
   }
   JOINT Spine
   {
      OFFSET 0.000000 14.268601 0.000000
      CHANNELS 3 Zrotation Xrotation Yrotation
      JOINT Spine1
      {
         OFFSET 0.000000 30.788881 0.153196
         CHANNELS 3 Zrotation Xrotation Yrotation
         JOINT HEad
         {
            OFFSET 0.000000 10.480993 0.013609
            CHANNELS 3 Zrotation Xrotation Yrotation
            End Site
            {
               OFFSET -0.348000 15.329041 3.016740
            }
         }
         JOINT LeftShoulder1
         {
            OFFSET 10.788001 -0.434702 -0.264000
            CHANNELS 3 Zrotation Xrotation Yrotation
            JOINT LeftArm
            {
               OFFSET 12.339240 -0.004056 0.386548
               CHANNELS 3 Zrotation Xrotation Yrotation
               JOINT LeftForeArm
               {
                  OFFSET 39.320280 0.118973 -1.709208
                  CHANNELS 3 Zrotation Xrotation Yrotation
                  JOINT LeftHand
                  {
                     OFFSET 33.077163 0.102434 1.226592
                     CHANNELS 3 Zrotation Xrotation Yrotation
                     End Site
                     {
                        OFFSET 20.093162 -0.720000 1.803492
                     }
                  }
               }
            }
         }
         JOINT RightShoulder
         {
            OFFSET -10.788001 -0.434702 -0.264000
            CHANNELS 3 Zrotation Xrotation Yrotation
            JOINT RightArm
            {
               OFFSET -12.339240 -0.004056 0.386548
               CHANNELS 3 Zrotation Xrotation Yrotation
               JOINT RightForeArm
               {
                  OFFSET -39.476518 0.118973 -1.709208
                  CHANNELS 3 Zrotation Xrotation Yrotation
                  JOINT RightHand
                  {
                     OFFSET -32.990522 0.102434 1.226592
                     CHANNELS 3 Zrotation Xrotation Yrotation
                     End Site
                     {
                        OFFSET -19.957442 -0.720000 1.803492
                     }
                  }
               }
            }
         }
      }
   }
   JOINT LeftUpLeg
   {
      OFFSET 10.734961 -10.400485 0.121982
      CHANNELS 3 Zrotation Xrotation Yrotation
      JOINT LeftLeg
      {
         OFFSET 0.000000 -53.307237 1.647240
         CHANNELS 3 Zrotation Xrotation Yrotation
         JOINT LeftFoot
         {
            OFFSET -0.304259 -50.510883 -1.752708
            CHANNELS 3 Zrotation Xrotation Yrotation
            JOINT LeftToes
            {
               OFFSET -0.048000 -5.298108 10.198920
               CHANNELS 3 Zrotation Xrotation Yrotation
               End Site
               {
                  OFFSET 0.096000 -0.056938 11.735748
               }
            }
         }
      }
   }
}
MOTION
Frames: 16
Frame Time: 0.016667
-103.753632 79.683217 261.298633 -13.250608 -4.848342 -40.751064 15.679474 -40.528840 15.102139 13.882260 87.028645 -19.914600 -15.638982 -31.073601 1.588147 4.022940 24.712376 -13.555243 11.745187 -6.585506 -5.679233 -0.836227 -11.443593 12.247620 1.908744 70.483263 44.850618 7.801815 -5.703166 20.976529 -119.804004 -42.433739 -90.427122 -50.068292 56.331569 -71.328007 -43.843790 -5.205191 50.863039 39.143531 74.296093 50.503061 137.744753 10.388250 190.673801 38.610236 134.206660 87.471589 -1.147319 -7.012707 -41.455154 14.911215 -52.331004 54.392454 40.931507 24.961362 -28.915080 -35.388754 -30.998131 -29.659058 1.044325 29.468984 15.709932
-101.957749 79.024781 260.156151 -13.401514 -4.380317 -39.949971 17.755753 -41.012103 18.219692 11.609154 86.597025 -19.124096 -14.875442 -30.982769 1.541208 4.138596 24.476179 -13.022721 11.730115 -6.060591 -5.127251 -1.022742 -10.771470 12.147881 4.767059 71.909782 42.159107 6.757978 -5.973166 20.317491 -118.750010 -41.928943 -91.693179 -51.111511 56.889629 -71.897993 -42.744844 -5.312364 50.337692 38.026665 76.327098 49.924588 134.108729 15.795484 190.776568 39.672136 137.942022 88.980269 5.052012 -3.778183 -47.600456 15.778444 -53.917643 55.969746 40.916105 27.428161 -29.216418 -33.221084 -31.786495 -29.225379 0.974117 30.106121 15.978254
-100.165881 78.397297 259.172951 -13.314504 -4.023409 -39.487967 18.952115 -42.494978 20.823816 9.601392 86.905654 -17.508068 -13.986350 -30.611030 1.942911 4.253211 23.824258 -12.388743 12.044835 -5.220991 -4.734276 -0.710844 -10.177471 11.961574 7.257091 72.727765 39.748720 5.149062 -6.570884 20.503690 -117.294156 -42.391316 -93.132430 -51.528323 57.650519 -71.456107 -41.121533 -5.306871 50.471423 37.621638 78.155922 48.564725 131.342311 21.888268 190.596524 40.392619 140.512878 89.892666 0.399474 -5.519785 -41.370347 17.318693 -55.527280 57.575285 41.084647 30.790623 -29.549365 -31.167704 -32.286202 -28.543613 0.900797 30.593978 16.213843
-98.329047 78.049077 258.244644 -12.845550 -4.100671 -39.386590 18.401624 -44.715380 23.074160 9.322999 87.491096 -14.328941 7.624765 -31.208118 3.107515 4.519580 22.509962 -11.176631 12.113693 -4.845724 -4.455502 -0.999345 -9.244491 11.743583 9.296312 73.192703 37.671488 3.034504 -7.309011 19.912660 -115.019074 -42.513891 -94.113074 -60.902966 58.546449 -64.989892 -37.166382 -0.788829 51.385986 37.196227 80.788680 46.627038 128.356535 27.836532 189.114742 41.011622 143.234149 90.496912 3.782512 -3.385212 -44.797681 19.284860 -56.575615 59.643432 40.713194 34.542715 -29.554707 -28.884378 -32.526184 -27.787291 0.840727 30.710194 16.421286
-96.447190 77.446774 257.416340 -12.660662 -3.279040 -39.302121 18.865070 -46.485554 25.354752 9.197856 87.240046 -12.853361 15.273724 -33.496743 4.716857 4.631275 19.750648 -9.727709 12.524054 -3.940073 -4.192303 -0.844752 -9.070429 11.453210 10.915825 73.422095 35.938570 0.255483 -9.031628 18.977032 -113.146298 -42.385275 -94.509526 -72.707377 56.518521 -55.248458 -40.001986 -9.736825 49.203470 37.182672 83.195686 43.801983 127.260003 32.921983 188.100705 40.802894 144.999629 90.170224 0.596133 -3.802722 -40.644646 22.585527 -58.437753 61.488402 40.757306 38.805351 -29.731523 -26.544335 -32.720588 -26.815791 0.818279 30.554882 16.558796
-94.497870 76.881932 256.545139 -12.068937 -2.958272 -39.324257 18.972848 -48.074181 27.989046 9.334666 86.367332 -12.255851 25.817060 -34.425980 5.749276 4.780456 18.086179 -8.575833 12.814722 -3.183670 -4.160268 -0.831741 -9.304794 10.899593 12.172567 74.119041 34.455852 -2.503160 -10.059427 17.032620 -103.689764 -40.732499 -87.448988 -73.802448 56.993865 -54.158155 -30.459300 8.030974 52.156769 37.931145 84.464981 41.425555 126.841462 38.061980 187.003162 40.747344 145.131206 89.971459 2.366854 -2.467211 -42.619117 25.948906 -60.378053 62.795113 41.791021 43.822169 -30.804116 -25.012904 -33.457064 -26.292455 0.859235 29.621438 16.555284
-92.358397 76.590465 255.579239 -12.536838 -2.956731 -39.713790 19.575075 -47.694699 30.356342 8.946536 84.639451 -12.565547 27.843649 -35.073155 6.296273 4.809105 17.121795 -8.003581 13.525532 -4.462510 -3.825975 0.551928 -9.185335 10.474760 13.060754 74.680906 33.328530 -6.868999 -14.741433 16.157303 -96.549956 -37.632413 -77.585574 -66.415564 54.098862 -59.549749 -40.739534 -14.382157 44.794464 38.411355 87.031937 36.680103 128.715011 41.174156 186.266512 42.143148 144.774944 91.444751 0.796558 -2.448788 -39.354075 28.847502 -61.205646 63.699014 43.428238 47.571970 -32.312495 -23.918657 -32.890557 -25.350208 0.890144 29.537331 16.750938
-90.139044 76.616901 254.627815 -13.011379 -2.785300 -40.482962 20.328875 -46.716226 32.684624 8.088771 81.861204 -12.746905 32.998471 -35.790051 6.544778 4.724324 16.577103 -7.893323 14.424224 -4.332987 -2.763764 1.941104 -7.966833 10.742297 13.671775 75.064817 32.470385 -9.437947 -14.697925 15.163602 -91.380671 -35.063691 -71.848174 -62.862097 54.145642 -63.690032 -28.568964 -2.730821 42.230254 38.375954 87.863765 33.083281 128.993464 44.657662 186.006268 42.257653 143.726086 91.688835 2.759268 -2.200877 -40.494634 31.611369 -62.564792 63.650827 46.370486 50.917168 -34.478300 -23.269961 -31.698549 -24.167059 0.915305 29.945933 17.075113
-87.819422 77.109789 253.755833 -13.313568 -1.803369 -40.965159 21.295394 -45.212007 35.416553 6.271982 78.929065 -12.514665 33.122145 -37.109722 6.921735 4.583738 16.326421 -8.021972 15.949361 -2.202831 -2.251384 3.270446 -7.879593 11.274247 12.176605 74.234594 33.756048 -11.800484 -15.115466 13.798636 -90.666964 -33.411605 -71.515250 -60.152294 53.515331 -66.065763 -37.083757 -7.567149 43.127133 36.828940 89.307011 30.220742 129.236373 46.724559 185.678597 38.791827 141.333566 89.905794 4.846045 -4.034109 -34.791102 34.325058 -64.212002 62.397740 48.336183 54.094524 -36.072544 -23.040933 -30.120912 -23.179186 0.899606 30.632678 17.234804
-85.363034 77.976064 252.855087 -14.046914 -0.935277 -42.216542 22.952890 -44.041077 38.137919 4.258126 75.564459 -11.371214 37.275607 -36.657711 6.506064 4.315290 16.830510 -8.796715 17.583943 0.553594 -3.506603 3.884433 -7.093400 10.908116 9.270143 73.646282 36.550255 -14.323252 -14.169016 13.236129 -91.732712 -32.942655 -73.539267 -59.894871 54.226484 -68.457299 -30.703664 -1.262799 40.051195 34.864202 88.832102 28.934911 129.105916 45.899889 185.124395 40.086490 139.141185 89.815348 7.024397 -0.162681 -51.607396 36.423944 -64.681454 60.170948 49.073547 56.037222 -36.924040 -23.254439 -28.608719 -22.277099 0.863245 31.434672 17.275459
-82.860297 79.072269 252.075764 -14.978415 0.345410 -42.992878 24.677733 -42.811742 40.776451 1.482509 72.324655 -8.797790 42.002047 -35.559976 5.774528 3.886764 18.553922 -10.644633 19.455756 3.375265 -5.503316 4.604849 -7.048654 10.592007 4.977555 72.137767 40.945058 -16.370184 -13.266813 13.468409 -94.718693 -34.396682 -78.117181 -58.605257 54.456473 -68.412165 -35.875207 -4.260975 41.186328 33.171046 88.691099 29.118982 129.058692 47.213467 184.594359 41.056561 137.803151 90.070674 9.383618 -5.585330 -34.820359 37.295025 -64.190767 57.266119 52.774464 59.008750 -40.163520 -13.317431 -28.288021 -20.374398 0.893165 31.594973 17.318097
-80.119513 80.399550 251.296478 -14.844532 2.136579 -45.024378 27.219397 -42.202369 44.092078 -2.170414 68.885907 -6.544753 38.579791 -36.016940 4.958477 3.521355 20.090849 -12.174452 18.875349 5.174004 -6.250072 4.380314 -6.601070 10.360329 -0.584265 68.459369 46.424000 -17.488732 -11.833941 12.312455 -98.093189 -34.805859 -84.735689 -59.206518 56.124446 -68.644822 -32.611780 -0.960211 39.393430 29.353493 91.458596 30.333457 125.633093 48.138043 184.074759 41.196890 140.886845 90.140780 13.058113 4.562331 -62.104123 38.896363 -63.344609 55.280922 54.231316 60.704167 -42.309699 -3.494950 -29.024954 -19.757162 1.017365 30.533104 17.121864
-77.264041 81.805323 250.504109 -13.013625 3.439055 -48.473808 28.384320 -42.008932 47.583128 -5.579540 64.668183 -3.548560 35.162756 -36.933111 4.220861 3.277077 21.062377 -13.033355 18.324001 5.596523 -6.274386 4.483378 -5.931538 10.136129 -6.762730 63.097376 52.830328 -19.665645 -9.731955 11.340219 -102.959269 -36.250396 -92.551256 -58.528991 58.181757 -66.990420 -36.071762 -2.875112 40.625122 27.945943 97.246505 25.606200 121.800755 61.969036 183.368859 43.432859 144.907736 92.314795 17.654733 -0.451924 -46.770130 43.032033 -60.729138 54.634625 58.089919 65.083793 -48.528935 -14.941365 -28.985516 -21.676215 1.064124 29.506458 16.595017
-74.426845 82.998427 249.635292 -9.401507 4.700750 -52.681020 28.602752 -43.607712 51.290442 -5.729553 59.660500 -2.717433 41.528004 -38.862772 4.767896 3.221435 21.603624 -13.054244 16.947991 6.091256 -4.686075 2.189807 -5.874161 9.771560 -11.964050 57.423395 57.951737 -20.350040 -8.709677 11.393433 -106.243722 -36.904834 -101.798710 -58.484198 60.818723 -65.625742 -33.799847 -0.840302 40.544290 25.537883 99.609826 29.498545 117.113866 63.383076 183.868583 38.209922 150.898550 91.312505 14.381551 0.142685 -47.633565 46.632259 -58.835755 56.269441 58.247484 66.890112 -52.407444 -26.068247 -27.399927 -22.254925 0.985097 29.514344 16.271256
-71.666960 84.117078 248.782116 -4.036186 5.682542 -58.036076 29.758899 -47.650934 54.130902 -5.153516 56.134374 -3.347137 35.131993 -39.919300 3.845026 3.217054 23.326865 -13.759111 14.508749 7.773893 -2.089934 -2.527317 -3.814540 8.563918 -16.948191 54.773920 61.263177 -20.704638 -9.107263 11.975068 -109.870710 -36.094773 -111.895492 -58.303212 62.793303 -64.007561 -35.273149 -1.498607 42.497355 23.755584 98.723602 33.535932 109.441733 68.287487 184.722630 37.086582 155.009777 92.976087 17.375947 -3.734884 -35.904088 49.249752 -57.888613 59.912336 54.829432 65.738009 -52.846967 -36.906579 -25.520905 -21.913853 0.915024 30.177142 16.213143
-69.174580 84.832219 248.001305 -0.612470 6.843557 -61.899593 30.353497 -52.403827 54.261236 -1.771098 53.395209 -4.972405 36.614814 -40.807112 3.321671 3.248830 24.605668 -14.089044 12.511520 9.543816 0.170448 -3.999807 -1.488126 7.608411 -20.753489 53.941504 63.627310 -19.354594 -10.167391 12.568439 -115.562962 -34.120459 -120.573712 -60.048380 63.760615 -65.294027 -32.334822 0.537709 43.602104 20.857296 97.355864 35.667214 102.897114 72.369679 186.125578 37.153866 158.401868 94.664482 16.013831 -2.285915 -38.208642 49.607971 -56.812749 62.538100 50.960304 62.424726 -51.826512 -48.161317 -25.707230 -21.833965 0.982337 29.430524 15.646258
